<?xml version="1.0" encoding="UTF-8"?><svg id="Layer_2" xmlns="http://www.w3.org/2000/svg" viewBox="0 0 392.76 67.1"><defs><style>.cls-1{fill:#13649d;}.cls-1,.cls-2,.cls-3,.cls-4,.cls-5,.cls-6{stroke-width:0px;}.cls-2{fill:#ee424c;}.cls-3{fill:#17469d;}.cls-4{fill:#af1f25;}.cls-5{fill:#2f93d0;}.cls-6{fill:#fff;}</style></defs><g id="Layer_1-2"><path class="cls-6" d="M69.25,30.89c0-11.42,8.63-19.21,19.49-19.21,8.47,0,13.2,4.46,15.82,9.08l-6.79,3.34c-1.56-3.01-4.9-5.4-9.02-5.4-6.46,0-11.36,5.18-11.36,12.2s4.9,12.2,11.36,12.2c4.12,0,7.46-2.34,9.02-5.4l6.79,3.29c-2.67,4.62-7.35,9.13-15.82,9.13-10.86,0-19.49-7.8-19.49-19.21Z"/><path class="cls-6" d="M109.12,12.29h7.07v37.15h-7.07V12.29Z"/><path class="cls-6" d="M141.37,46.04c-1.84,2.06-5.07,4.07-9.47,4.07-5.9,0-8.69-3.23-8.69-8.47v-19.1h7.07v16.32c0,3.73,1.95,4.96,4.96,4.96,2.73,0,4.9-1.5,6.13-3.06v-18.21h7.07v26.9h-7.07v-3.4Z"/><path class="cls-6" d="M188.82,32.45c0-2.51-1.11-4.29-4.01-4.29-2.51,0-4.57,1.67-5.57,3.12v18.16h-7.13v-16.99c0-2.51-1.12-4.29-4.01-4.29-2.45,0-4.51,1.67-5.57,3.17v18.1h-7.07v-26.9h7.07v3.51c1.11-1.62,4.68-4.18,8.8-4.18s6.46,1.84,7.46,4.9c1.56-2.45,5.12-4.9,9.25-4.9,4.96,0,7.91,2.62,7.91,8.13v19.44h-7.13v-16.99Z"/><path class="cls-6" d="M202.18,14.35c0-2.34,1.95-4.23,4.23-4.23s4.23,1.89,4.23,4.23-1.89,4.23-4.23,4.23-4.23-1.89-4.23-4.23ZM202.9,22.54h7.07v26.9h-7.07v-26.9Z"/><path class="cls-6" d="M218.39,42.76v-14.03h-4.46v-6.18h4.46v-7.35h7.13v7.35h5.46v6.18h-5.46v12.14c0,1.67.89,2.95,2.45,2.95,1.06,0,2.06-.39,2.45-.78l1.5,5.35c-1.06.95-2.95,1.73-5.9,1.73-4.96,0-7.63-2.56-7.63-7.35Z"/><path class="cls-6" d="M249.45,49.44V14.89h3.89v34.55h-3.89Z"/><path class="cls-6" d="M262.6,49.44v-25.51h3.16l.32,3.79h.16c1.23-1.26,2.53-2.31,3.92-3.16s2.94-1.26,4.65-1.26c2.7,0,4.67.84,5.92,2.52,1.24,1.68,1.87,4.15,1.87,7.42v16.2h-3.84v-15.72c0-2.45-.39-4.24-1.18-5.36-.79-1.12-2.08-1.68-3.87-1.68-1.33,0-2.54.34-3.63,1.03s-2.31,1.71-3.68,3.08v18.67h-3.79Z"/><path class="cls-6" d="M297.68,50.07c-1.82,0-3.56-.34-5.21-1.03-1.65-.68-3.07-1.52-4.26-2.5l1.95-2.58c1.12.88,2.28,1.61,3.47,2.21,1.19.6,2.59.89,4.21.89,1.75,0,3.07-.42,3.94-1.26.88-.84,1.31-1.84,1.31-3,0-.91-.3-1.67-.89-2.29-.6-.61-1.35-1.14-2.26-1.58-.91-.44-1.84-.83-2.79-1.18-1.19-.42-2.38-.93-3.58-1.53-1.19-.6-2.18-1.35-2.97-2.26-.79-.91-1.18-2.09-1.18-3.52,0-2,.76-3.69,2.29-5.08,1.53-1.38,3.66-2.08,6.39-2.08,1.54,0,2.98.28,4.31.84,1.33.56,2.47,1.23,3.42,2l-1.84,2.47c-.88-.63-1.78-1.17-2.71-1.6-.93-.44-1.99-.66-3.18-.66-1.68,0-2.93.39-3.73,1.18-.81.79-1.21,1.69-1.21,2.71,0,.84.27,1.53.82,2.08.54.54,1.25,1.01,2.13,1.39.88.39,1.8.77,2.79,1.16,1.26.46,2.5.97,3.71,1.55,1.21.58,2.22,1.34,3.02,2.29.81.95,1.21,2.24,1.21,3.89,0,1.33-.35,2.57-1.05,3.71-.7,1.14-1.74,2.05-3.1,2.73s-3.03,1.03-5,1.03Z"/><path class="cls-6" d="M314.98,18.46c-.74,0-1.36-.24-1.87-.74-.51-.49-.76-1.14-.76-1.95s.25-1.39.76-1.87c.51-.47,1.13-.71,1.87-.71s1.4.24,1.89.71c.49.47.74,1.1.74,1.87s-.25,1.46-.74,1.95c-.49.49-1.12.74-1.89.74ZM313.03,49.44v-25.51h3.79v25.51h-3.79Z"/><path class="cls-6" d="M334.28,61.32c-2.1,0-3.94-.28-5.52-.84-1.58-.56-2.81-1.35-3.68-2.37-.88-1.02-1.31-2.24-1.31-3.68,0-1.12.33-2.19,1-3.21.67-1.02,1.58-1.91,2.74-2.68v-.21c-.63-.42-1.17-.97-1.6-1.66-.44-.68-.66-1.52-.66-2.5,0-1.09.31-2.03.92-2.84.61-.81,1.24-1.44,1.87-1.89v-.21c-.81-.67-1.55-1.59-2.24-2.79-.68-1.19-1.03-2.54-1.03-4.05,0-1.86.43-3.46,1.29-4.81.86-1.35,2-2.4,3.42-3.16,1.42-.75,2.99-1.13,4.71-1.13.7,0,1.36.06,1.97.18.61.12,1.13.27,1.55.45h8.83v3h-5.42c.67.63,1.21,1.42,1.63,2.37.42.95.63,2,.63,3.16,0,1.82-.41,3.4-1.24,4.73-.82,1.33-1.93,2.36-3.31,3.08-1.39.72-2.94,1.08-4.65,1.08-.63,0-1.29-.08-1.97-.24s-1.32-.38-1.92-.66c-.49.39-.9.82-1.24,1.31-.33.49-.5,1.1-.5,1.84,0,.84.32,1.53.97,2.08.65.54,1.83.82,3.55.82h5.1c2.94,0,5.14.48,6.6,1.45,1.45.96,2.18,2.5,2.18,4.6,0,1.54-.52,2.98-1.55,4.31-1.03,1.33-2.5,2.41-4.39,3.23-1.89.82-4.14,1.24-6.73,1.24ZM334.8,58.59c1.68,0,3.15-.26,4.39-.79,1.24-.53,2.22-1.21,2.92-2.05.7-.84,1.05-1.74,1.05-2.68,0-1.23-.45-2.09-1.34-2.58-.89-.49-2.22-.74-3.97-.74h-4.68c-.39,0-.87-.04-1.45-.1-.58-.07-1.18-.18-1.81-.32-.98.7-1.69,1.45-2.13,2.23-.44.79-.66,1.57-.66,2.34,0,1.44.68,2.58,2.05,3.42,1.37.84,3.24,1.26,5.63,1.26ZM334.17,38.71c1.02,0,1.95-.26,2.81-.79.86-.53,1.55-1.26,2.08-2.21.53-.95.79-2.05.79-3.31s-.25-2.41-.76-3.34c-.51-.93-1.19-1.65-2.05-2.16-.86-.51-1.81-.76-2.87-.76-1.58,0-2.93.55-4.05,1.66s-1.68,2.64-1.68,4.6c0,1.26.26,2.37.79,3.31.53.95,1.23,1.68,2.1,2.21.88.53,1.82.79,2.84.79Z"/><path class="cls-6" d="M352.05,49.44V11.89h3.79v10.41l-.11,5.36c1.23-1.23,2.52-2.26,3.89-3.1s2.91-1.26,4.63-1.26c2.7,0,4.67.84,5.92,2.52,1.24,1.68,1.87,4.15,1.87,7.42v16.2h-3.84v-15.72c0-2.45-.39-4.24-1.18-5.36-.79-1.12-2.08-1.68-3.87-1.68-1.33,0-2.54.34-3.63,1.03s-2.31,1.71-3.68,3.08v18.67h-3.79Z"/><path class="cls-6" d="M388.18,50.07c-2.63,0-4.46-.77-5.5-2.31-1.03-1.54-1.55-3.54-1.55-6v-14.67h-3.84v-2.89l4-.26.47-7.21h3.21v7.21h6.99v3.16h-6.99v14.78c0,1.58.29,2.81.87,3.71.58.89,1.64,1.34,3.18,1.34.46,0,.96-.07,1.5-.21.54-.14,1.03-.3,1.45-.47l.79,2.89c-.7.25-1.46.46-2.26.66-.81.19-1.58.29-2.31.29Z"/><polygon class="cls-1" points="0 43.06 13.24 35.42 24.86 42.14 24.86 57.42 0 43.06"/><polygon class="cls-3" points="49.73 43.06 36.49 35.42 24.86 42.14 24.86 57.42 49.73 43.06"/><polygon class="cls-4" points="0 14.36 13.24 22 24.86 15.28 24.86 0 0 14.36"/><polygon class="cls-6" points="49.73 14.36 36.49 22 24.86 15.28 24.86 0 49.73 14.36"/><polygon class="cls-2" points="0 43.06 13.24 35.42 13.24 22 0 14.36 0 43.06"/><polygon class="cls-5" points="49.73 43.06 36.49 35.42 36.49 22 49.73 14.36 49.73 43.06"/><polygon class="cls-5" points="24.86 28.71 11.07 36.67 24.86 44.64 24.86 28.71"/><polygon class="cls-6" points="24.86 28.71 24.86 44.64 38.66 36.67 24.86 28.71"/><polygon class="cls-4" points="24.86 28.71 38.66 36.67 38.66 20.75 24.86 28.71"/><polygon class="cls-2" points="24.86 28.71 38.66 20.75 24.86 12.78 24.86 28.71"/><polygon class="cls-1" points="24.86 28.71 24.86 12.78 11.07 20.75 24.86 28.71"/><polygon class="cls-3" points="24.86 28.71 11.07 20.75 11.07 36.67 24.86 28.71"/><rect class="cls-3" x="11.76" y="49.69" width="26.89" height="11.63"/><polygon class="cls-5" points="25.24 49.69 18.53 61.31 31.95 61.31 25.24 49.69"/><polygon class="cls-2" points="18.53 61.32 25.24 49.7 11.82 49.7 18.53 61.32"/><polygon class="cls-4" points="31.95 61.32 38.66 49.7 25.24 49.7 31.95 61.32"/><rect class="cls-6" x="11.59" y="61.32" width="27.07" height="5.78"/></g></svg>
